<?xml version="1.0" encoding="UTF-8"?>
<svg id="Layer_1" data-name="Layer 1" xmlns="http://www.w3.org/2000/svg" viewBox="0 0 422.15 255.92">
  <defs>
    <style>
      .cls-1 {
        fill: #005da9;
      }

      .cls-2 {
        fill: #11b5e9;
      }

      .cls-3 {
        fill: #94a0a9;
      }
    </style>
  </defs>
  <path class="cls-1" d="m393.24,127.11c-4.37-3.01-5.87-6.53-8.31-11.96-1.95-4.32-33.23-79.4-33.23-79.4h-8.89c-1.24,2.96-13.06,34.99-19.74,50.69-2.19,5.19-6.47,15.39-13.33,29.38-2.73,5.72-6.24,9.34-8.98,10.67V54.57s-.21-6.24,3.87-9.64c3.83-3.18,11.2-2.97,11.2-2.97l.04-6.2-37.55-.04v6.24s8.45-.34,11.82,3.03c3.37,3.4,2.91,9.64,2.91,9.64l-.02,48.21-48.04-67.09h-33.91v6.2c6.98,0,14.07,1.81,14.07,11.18v63.57s.19,6.71-2.44,8.9c-3.99,3.32-11.6,3.13-11.6,3.13v6.38h37.93v-6.38s-9.36.27-13.68-3.4c-3.01-2.56-2.72-8.63-2.72-8.63v-57.44l56.45,75.82h43.33v-6.36s-9.42.36-12.25-1.05c-1.46-.71-2.2-1.72-2.77-3.12-.29-.84-.35-1.89.03-3.75,1.3-6.51,6.82-18.6,6.82-18.6h30.39s5.69,13.24,7.68,18.31c1.88,4.8.74,6.97-2.29,7.68-2.41.58-10.32.57-10.32.57v6.34h50.26v-6.37s-3.83.38-6.72-1.6m-66.24-32.12l12.36-29.79,12.46,29.79h-24.83Z"/>
  <path class="cls-1" d="m185.43,75.77c-6.37-1.83-22.5-6.71-28.38-12.58-5.82-5.82-2.08-15.28,1.8-18.72,11.51-10.18,32.04-3.47,40.81,26.57h5.39v-35.33h-4.84s-3.18,5.1-5.07,6.21c-.8.5-3.99-.96-5.56-1.74-45.76-25.03-76.59,33.67-37.84,51.29,8.4,3.81,13.33,5.66,23.01,8.55,16.66,4.98,18.16,17.56,12.67,24.32-8.7,10.71-35.71,13.84-49.22-25.85h-6.49l-.04,27.46h0c-.09-.06-2.81-1.77-4.96-3.62-8.71-7.5-24.82-30.89-28.17-35.55l.07-.02c26.86-5.04,29.51-29.6,17.23-42.74l-17.29,15.39c.22,3.16-.12,6.77-1.32,10.86-3.02,10.4-13.27,12.19-19.67,12.25-2.01.02-4.53-.23-4.7-.26h-.04v.03l-22.63,20.09v32.68h22.64v-46.21l.09.12c12.8,17.04,24.17,33.75,32.44,46.06h26.31s7.15,0,7.15,0c0,0,1.46-1.99,3.22-3.87,2.06-2.2,4.98-.75,6.42-.07,7.33,3.44,14.04,5.12,22.46,5.42,45.26,1.65,54.56-49.23,14.51-60.77"/>
  <path class="cls-1" d="m384.75,34.62c5.04,0,9.27,3.98,9.27,9.19s-4.22,9.28-9.27,9.28-9.31-3.97-9.31-9.28,4.25-9.19,9.31-9.19m0,17.11c4.28,0,7.58-3.41,7.58-7.92s-3.31-7.83-7.58-7.83-7.62,3.4-7.62,7.83,3.31,7.92,7.62,7.92m-3.6-13.28h4.18c2.56,0,3.77,1.01,3.77,3.09,0,1.95-1.23,2.76-2.84,2.94l3.09,4.77h-1.81l-2.94-4.64h-1.78v4.64h-1.68v-10.79Zm1.68,4.79h1.75c1.49,0,2.85-.08,2.85-1.78,0-1.42-1.24-1.65-2.39-1.65h-2.22v3.43Z"/>
  <polyline class="cls-2" points="50.2 102.37 50.2 102.38 50.2 135.07 13.3 135.07 50.2 102.38"/>
  <path class="cls-1" d="m72.83,50.09c0-6.35,8.74-8.32,13.07-7.84,2.74.3,7.64,3.33,10.49,9.17l13.6-12.08c-3.92-2.28-8.64-3.68-14.06-3.68-21.67,0-58.84.03-58.84.03v6.23s1.26-.07,2.66.09c2.54.3,5.97.4,8.3,3.13.92,1.07,2.16,3.64,2.16,7.02s-.02,22.66-.02,40.3l22.63-20.09v-22.27Z"/>
  <path class="cls-3" d="m66.14,190.24l-6.05-12.09h-5.44v12.09h-4.36v-28.7h11.13c5.44,0,8.9,3.5,8.9,8.38,0,4.12-2.49,6.74-5.72,7.62l6.61,12.7h-5.08Zm-5.04-24.8h-6.45v8.99h6.45c2.9,0,4.87-1.66,4.87-4.48s-1.97-4.51-4.87-4.51"/>
  <path class="cls-3" d="m86.61,190.24v-1.86c-1.49,1.48-2.91,2.09-5.44,2.09s-4.24-.61-5.48-1.85c-1.05-1.1-1.61-2.66-1.61-4.4,0-3.43,2.38-5.88,7.06-5.88h5.4v-1.46c0-2.57-1.29-3.83-4.47-3.83-2.26,0-3.34.52-4.47,1.98l-2.69-2.54c1.93-2.27,3.94-2.95,7.32-2.95,5.6,0,8.43,2.38,8.43,7.01v13.67h-4.03Zm-.08-9.04h-4.79c-2.42,0-3.67,1.09-3.67,2.94s1.17,2.91,3.75,2.91c1.57,0,2.74-.13,3.82-1.18.61-.61.89-1.57.89-3.03v-1.65Z"/>
  <path class="cls-3" d="m108.09,190.24v-2.18c-1.53,1.85-3.19,2.42-5.39,2.42-2.06,0-3.88-.69-5.01-1.82-2.05-2.06-2.29-5.56-2.29-8.66s.24-6.57,2.29-8.62c1.13-1.14,2.91-1.82,4.96-1.82,2.18,0,3.87.52,5.36,2.3v-10.31h4.11v28.69h-4.03Zm-4.31-17.02c-3.71,0-4.28,3.15-4.28,6.77s.57,6.81,4.28,6.81,4.23-3.19,4.23-6.81-.52-6.77-4.23-6.77"/>
  <path class="cls-3" d="m118.32,161.43h4.35v4.34h-4.35v-4.34Zm.12,8.38h4.12v20.44h-4.12v-20.44Z"/>
  <path class="cls-3" d="m142.13,188.06c-1.33,1.37-3.35,2.43-6.13,2.43s-4.75-1.06-6.08-2.43c-1.94-2.01-2.42-4.6-2.42-8.06s.47-6.01,2.42-8.02c1.33-1.37,3.3-2.42,6.08-2.42s4.8,1.05,6.13,2.42c1.93,2.01,2.42,4.59,2.42,8.02s-.49,6.05-2.42,8.06m-3.11-13.66c-.77-.78-1.81-1.17-3.02-1.17s-2.21.39-2.98,1.17c-1.25,1.25-1.41,3.39-1.41,5.61s.16,4.35,1.41,5.6c.77.77,1.77,1.21,2.98,1.21s2.26-.44,3.02-1.21c1.25-1.25,1.41-3.37,1.41-5.6s-.16-4.35-1.41-5.61"/>
  <path class="cls-3" d="m154.98,190.24c-3.9,0-5.6-2.62-5.6-5.65v-23.05h4.11v22.8c0,1.57.57,2.38,2.22,2.38h1.82v3.51h-2.54Z"/>
  <path class="cls-3" d="m174.89,188.06c-1.33,1.37-3.34,2.43-6.12,2.43s-4.76-1.06-6.09-2.43c-1.94-2.01-2.42-4.6-2.42-8.06s.48-6.01,2.42-8.02c1.33-1.37,3.31-2.42,6.09-2.42s4.79,1.05,6.12,2.42c1.93,2.01,2.43,4.59,2.43,8.02s-.49,6.05-2.43,8.06m-3.1-13.66c-.76-.78-1.82-1.17-3.02-1.17s-2.22.39-2.98,1.17c-1.25,1.25-1.41,3.39-1.41,5.61s.15,4.35,1.41,5.6c.76.77,1.77,1.21,2.98,1.21s2.26-.44,3.02-1.21c1.25-1.25,1.41-3.37,1.41-5.6s-.16-4.35-1.41-5.61"/>
  <path class="cls-3" d="m189.32,198.75c-3.11,0-5.08-.73-7.21-2.7l2.61-2.63c1.3,1.22,2.42,1.83,4.44,1.83,3.46,0,4.8-2.47,4.8-5.21v-2.61c-1.49,1.77-3.19,2.34-5.28,2.34s-3.75-.68-4.88-1.83c-1.98-1.96-2.29-4.83-2.29-8.29s.31-6.34,2.29-8.3c1.13-1.13,2.86-1.77,4.92-1.77,2.18,0,3.83.56,5.36,2.42v-2.17h3.99v20.31c0,4.98-3.3,8.63-8.74,8.63m.47-25.52c-3.7,0-4.18,3.18-4.18,6.41s.48,6.41,4.18,6.41,4.16-3.19,4.16-6.41-.44-6.41-4.16-6.41"/>
  <path class="cls-3" d="m203.66,161.43h4.35v4.34h-4.35v-4.34Zm.13,8.38h4.1v20.44h-4.1v-20.44Z"/>
  <path class="cls-3" d="m221.67,190.48c-4.59,0-9.1-2.82-9.1-10.48s4.51-10.44,9.1-10.44c2.83,0,4.8.81,6.73,2.87l-2.82,2.73c-1.29-1.41-2.3-1.94-3.91-1.94s-2.91.65-3.78,1.82c-.88,1.13-1.21,2.58-1.21,4.96s.32,3.87,1.21,5c.88,1.16,2.22,1.8,3.78,1.8s2.62-.53,3.91-1.94l2.82,2.7c-1.93,2.06-3.9,2.91-6.73,2.91"/>
  <path class="cls-3" d="m244.25,190.24v-1.86c-1.5,1.48-2.92,2.09-5.44,2.09s-4.24-.61-5.49-1.85c-1.04-1.1-1.6-2.66-1.6-4.4,0-3.43,2.38-5.88,7.06-5.88h5.39v-1.46c0-2.57-1.29-3.83-4.47-3.83-2.25,0-3.35.52-4.47,1.98l-2.7-2.54c1.94-2.27,3.95-2.95,7.34-2.95,5.59,0,8.42,2.38,8.42,7.01v13.67h-4.02Zm-.09-9.04h-4.79c-2.42,0-3.66,1.09-3.66,2.94s1.16,2.91,3.74,2.91c1.57,0,2.75-.13,3.83-1.18.62-.61.89-1.57.89-3.03v-1.65Z"/>
  <path class="cls-3" d="m259.27,190.24c-3.92,0-5.6-2.62-5.6-5.65v-23.05h4.1v22.8c0,1.57.57,2.38,2.22,2.38h1.82v3.51h-2.54Z"/>
  <path class="cls-3" d="m283.7,190.48c-4.32,0-7.42-1.01-10.16-3.79l2.88-2.85c2.11,2.08,4.4,2.73,7.35,2.73,3.75,0,5.93-1.61,5.93-4.39,0-1.25-.36-2.3-1.14-2.98-.72-.69-1.45-.97-3.14-1.21l-3.38-.49c-2.34-.32-4.2-1.13-5.44-2.29-1.41-1.34-2.1-3.14-2.1-5.48,0-5,3.63-8.43,9.59-8.43,3.79,0,6.45.97,8.92,3.26l-2.79,2.75c-1.76-1.69-3.83-2.22-6.25-2.22-3.38,0-5.23,1.93-5.23,4.47,0,1.05.33,1.97,1.09,2.67.73.64,1.89,1.12,3.23,1.32l3.27.49c2.65.4,4.14,1.04,5.35,2.13,1.57,1.37,2.33,3.42,2.33,5.88,0,5.27-4.3,8.42-10.31,8.42"/>
  <path class="cls-3" d="m312.01,188.06c-1.32,1.37-3.34,2.43-6.13,2.43s-4.75-1.06-6.07-2.43c-1.94-2.01-2.43-4.6-2.43-8.06s.49-6.01,2.43-8.02c1.33-1.37,3.3-2.42,6.07-2.42s4.81,1.05,6.13,2.42c1.94,2.01,2.43,4.59,2.43,8.02s-.48,6.05-2.43,8.06m-3.11-13.66c-.77-.78-1.81-1.17-3.02-1.17s-2.22.39-2.98,1.17c-1.25,1.25-1.4,3.39-1.4,5.61s.15,4.35,1.4,5.6c.76.77,1.77,1.21,2.98,1.21s2.26-.44,3.02-1.21c1.25-1.25,1.41-3.37,1.41-5.6s-.16-4.35-1.41-5.61"/>
  <path class="cls-3" d="m327.45,190.48c-4.6,0-9.11-2.82-9.11-10.48s4.51-10.44,9.11-10.44c2.82,0,4.8.81,6.73,2.87l-2.81,2.73c-1.3-1.41-2.31-1.94-3.92-1.94s-2.91.65-3.79,1.82c-.89,1.13-1.2,2.58-1.2,4.96s.31,3.87,1.2,5c.88,1.16,2.22,1.8,3.79,1.8s2.62-.53,3.92-1.94l2.81,2.7c-1.92,2.06-3.9,2.91-6.73,2.91"/>
  <path class="cls-3" d="m338.82,161.43h4.35v4.34h-4.35v-4.34Zm.11,8.38h4.12v20.44h-4.12v-20.44Z"/>
  <path class="cls-3" d="m351.79,181.21c0,3.5,1.85,5.72,5.19,5.72,2.29,0,3.5-.66,4.96-2.1l2.62,2.46c-2.1,2.1-4.08,3.19-7.67,3.19-5.11,0-9.18-2.7-9.18-10.48,0-6.62,3.43-10.44,8.66-10.44s8.66,4.03,8.66,9.83v1.82h-13.25Zm8.61-5.64c-.63-1.53-2.08-2.59-4.03-2.59s-3.42,1.06-4.07,2.59c-.41.93-.48,1.52-.51,2.78h9.18c-.04-1.26-.16-1.85-.57-2.78"/>
  <path class="cls-3" d="m375.56,190.24c-3.83,0-5.6-2.75-5.6-5.69v-11.25h-2.34v-3.14h2.34v-6.2h4.11v6.2h3.94v3.14h-3.94v11.05c0,1.49.73,2.38,2.25,2.38h1.69v3.51h-2.45Z"/>
  <path class="cls-3" d="m390.67,194.31c-.4,1.13-.88,1.93-1.49,2.54-1.13,1.12-2.61,1.49-4.18,1.49h-1.66v-3.71h1.04c1.73,0,2.34-.52,2.94-2.18l1.14-3.19-7.12-19.46h4.34l4.88,14.39,4.76-14.39h4.39l-9.02,24.51Z"/>
  <path class="cls-3" d="m176.33,227.72c-1.1,1.1-2.62,1.8-4.55,1.8s-3.45-.7-4.55-1.8c-1.61-1.65-1.94-3.87-1.94-6.32s.33-4.68,1.94-6.32c1.1-1.1,2.61-1.81,4.55-1.81s3.45.71,4.55,1.81c1.61,1.64,1.93,3.88,1.93,6.32s-.32,4.67-1.93,6.32m-1.65-11.22c-.74-.74-1.77-1.16-2.9-1.16s-2.13.42-2.87,1.16c-1.16,1.16-1.3,3.13-1.3,4.9s.14,3.74,1.3,4.9c.74.75,1.74,1.17,2.87,1.17s2.17-.42,2.9-1.17c1.16-1.16,1.26-3.12,1.26-4.9s-.1-3.74-1.26-4.9"/>
  <path class="cls-3" d="m185.25,215.35v13.99h-2.32v-13.99h-2.03v-1.78h2.03v-2.99c0-2.36,1.33-4.26,4.04-4.26h1.68v2.01h-1.25c-1.49,0-2.13.87-2.13,2.31v2.94h3.39v1.78h-3.39Z"/>
  <polygon class="cls-3" points="215.29 229.33 203.12 210.93 203.12 229.33 200.66 229.33 200.66 206.38 202.99 206.38 215.17 224.73 215.17 206.38 217.62 206.38 217.62 229.33 215.29 229.33"/>
  <path class="cls-3" d="m232.58,227.72c-1.11,1.1-2.62,1.8-4.55,1.8s-3.46-.7-4.54-1.8c-1.61-1.65-1.93-3.87-1.93-6.32s.32-4.68,1.93-6.32c1.09-1.1,2.61-1.81,4.54-1.81s3.44.71,4.55,1.81c1.6,1.64,1.93,3.88,1.93,6.32s-.33,4.67-1.93,6.32m-1.65-11.22c-.75-.74-1.77-1.16-2.9-1.16s-2.13.42-2.88,1.16c-1.16,1.16-1.28,3.13-1.28,4.9s.12,3.74,1.28,4.9c.75.75,1.75,1.17,2.88,1.17s2.15-.42,2.9-1.17c1.16-1.16,1.25-3.12,1.25-4.9s-.09-3.74-1.25-4.9"/>
  <path class="cls-3" d="m246.88,216.5c-.85-.86-1.5-1.16-2.73-1.16-2.32,0-3.8,1.84-3.8,4.25v9.74h-2.33v-15.85h2.33v1.93c.86-1.32,2.6-2.13,4.44-2.13,1.52,0,2.67.36,3.81,1.49l-1.72,1.74Z"/>
  <path class="cls-3" d="m257.01,229.33c-2.7,0-4.06-1.9-4.06-4.25v-9.73h-2v-1.78h2v-4.96h2.31v4.96h3.39v1.78h-3.39v9.66c0,1.45.68,2.33,2.17,2.33h1.22v2h-1.65Z"/>
  <path class="cls-3" d="m273.26,229.33v-9.79c0-2.77-1.49-4.2-3.87-4.2s-3.96,1.45-3.96,4.2v9.79h-2.33v-22.95h2.33v8.83c1.16-1.33,2.67-1.94,4.44-1.94,3.58,0,5.71,2.29,5.71,5.87v10.19h-2.32Z"/>
  <path class="cls-3" d="m302.72,229.33l-1.84-5.18h-10.02l-1.84,5.18h-2.63l8.45-22.95h2.06l8.42,22.95h-2.61Zm-6.8-19.44l-4.32,12.13h8.58l-4.26-12.13Z"/>
  <path class="cls-3" d="m328.84,229.33v-9.77c0-2.8-1.52-4.22-3.91-4.22s-3.96,1.45-3.96,3.96v10.03h-2.32v-9.77c0-2.8-1.51-4.22-3.89-4.22s-3.98,1.45-3.98,4.22v9.77h-2.31v-15.85h2.31v1.74c1.13-1.29,2.72-1.94,4.48-1.94,2.21,0,3.9.91,4.88,2.66,1.22-1.75,3-2.66,5.21-2.66,1.71,0,3.14.55,4.11,1.5,1.12,1.09,1.7,2.57,1.7,4.42v10.15h-2.32Z"/>
  <path class="cls-3" d="m337.12,222.02c0,3.47,1.66,5.48,4.68,5.48,1.84,0,2.91-.55,4.15-1.8l1.58,1.39c-1.61,1.6-3.1,2.44-5.81,2.44-4.18,0-6.93-2.51-6.93-8.12,0-5.12,2.48-8.13,6.51-8.13s6.52,2.97,6.52,7.68v1.07h-10.71Zm7.9-4.39c-.61-1.46-2.04-2.39-3.71-2.39s-3.1.94-3.7,2.39c-.35.86-.42,1.35-.49,2.64h8.38c-.06-1.29-.13-1.77-.48-2.64"/>
  <path class="cls-3" d="m360.33,216.5c-.87-.86-1.51-1.16-2.75-1.16-2.31,0-3.79,1.84-3.79,4.25v9.74h-2.33v-15.85h2.33v1.93c.86-1.32,2.61-2.13,4.44-2.13,1.52,0,2.68.36,3.81,1.49l-1.71,1.74Z"/>
  <path class="cls-3" d="m364.91,206.35h2.61v2.61h-2.61v-2.61Zm.13,7.13h2.31v15.85h-2.31v-15.85Z"/>
  <path class="cls-3" d="m378.38,229.52c-4,0-7.03-2.7-7.03-8.12s3.03-8.13,7.03-8.13c2.19,0,3.58.59,5.22,2.37l-1.58,1.49c-1.19-1.33-2.13-1.78-3.64-1.78s-2.83.61-3.68,1.8c-.74,1.04-1.03,2.26-1.03,4.26s.29,3.22,1.03,4.26c.85,1.19,2.13,1.8,3.68,1.8s2.45-.49,3.64-1.8l1.58,1.51c-1.64,1.77-3.03,2.35-5.22,2.35"/>
  <path class="cls-3" d="m397.1,229.33v-1.51c-1.28,1.3-2.44,1.71-4.57,1.71s-3.49-.41-4.49-1.44c-.78-.77-1.19-1.97-1.19-3.23,0-2.77,1.93-4.58,5.48-4.58h4.77v-1.51c0-2.32-1.15-3.49-4.05-3.49-2.05,0-3.08.48-4.01,1.82l-1.58-1.46c1.42-1.84,3.03-2.36,5.61-2.36,4.26,0,6.36,1.85,6.36,5.29v10.76h-2.33Zm0-7.31h-4.44c-2.39,0-3.55.96-3.55,2.8s1.14,2.71,3.65,2.71c1.36,0,2.55-.1,3.55-1.07.55-.51.8-1.42.8-2.74v-1.7Z"/>
</svg>