<?xml version="1.0" encoding="UTF-8" standalone="no"?>
<!-- Created with Inkscape (http://www.inkscape.org/) -->

<svg
   width="37.491459mm"
   height="32.490829mm"
   viewBox="0 0 37.491459 32.490829"
   version="1.1"
   id="svg1"
   xmlns="http://www.w3.org/2000/svg"
   xmlns:svg="http://www.w3.org/2000/svg">
  <defs
     id="defs1" />
  <g
     id="layer1"
     transform="translate(-71.218366,-60.356446)">
    <g
       id="g3684"
       transform="matrix(0.26458333,0,0,0.26458333,64.048158,54.323946)">
      <path
         id="path3682"
         fill="#22ccff"
         d="M 133.4,22.8 H 62.6 l -35.5,61.4 35.4,61.4 h 70.9 l 35.4,-61.4 z m 1.7,68.6 C 134.4,93 132.8,94 131,94 H 94.2 c -2.5,0 -4.5,-2 -4.5,-4.5 0,-2.5 2,-4.5 4.5,-4.5 H 121 L 110.5,73.1 a 4.43,4.43 0 0 1 0,-5.9 L 121,55.3 H 76.7 v 71.2 c 0,2.5 -2,4.5 -4.5,4.5 -2.5,0 -4.5,-2 -4.5,-4.5 V 41.7 c 0,-2.5 2,-4.5 4.5,-4.5 2.5,0 4.5,2 4.5,4.5 v 4.6 H 131 c 1.8,0 3.4,1 4.1,2.6 0.7,1.6 0.4,3.5 -0.7,4.8 L 120,70.1 134.4,86.5 c 1.1,1.4 1.4,3.3 0.7,4.9 z" />
    </g>
  </g>
</svg>
